{"title":"Rugby.Union-The.Rugby.Club-2013.02.28.pdtv.x264","uid":8224366,"size":379541376,"categoryP":"video","categoryS":"tv_shows","magnet":"?xt=urn:btih:2a5edd36d4655f09a8feb2ab0d49dc60dc44ec80&amp;dn=Rugby.Union-The.Rugby.Club-2013.02.28.pdtv.x264&amp;tr=udp%3A%2F%2Ftracker.openbittorrent.com%3A80&amp;tr=udp%3A%2F%2Fopen.demonii.com%3A1337&amp;tr=udp%3A%2F%2Ftracker.coppersurfer.tk%3A6969&amp;tr=udp%3A%2F%2Fexodus.desync.com%3A6969","seeders":1,"leechers":0,"uploader":null,"files":2,"time":1362558218,"description":"SPORT: The Rugby Club\nDate: Friday 1st March 2013\nTime: 04:00 to 05:00\n\nAn expert panel of guests weigh in on all the talking points from the world of rugby union. Plus, interviews with some of the biggest names in the game.\n\nGeneral\nComplete name: 2013.02.28.Rugby.Club.pdtv.x264.mp4\nFormat : MPEG-4\nFormat profile : Base Media\nCodec ID : isom\nFile size: 362 MiB\nDuration : 47mn 11s\nOverall bit rate mode: Variable\nOverall bit rate : 1 072 Kbps\n\nVideo\nID : 1\nFormat : AVC\nFormat/Info: Advanced Video Codec\nFormat profile : &lt;a class=&quot;__cf_email__&quot; href=&quot;/cdn-cgi/l/email-protection&quot; data-cfemail=&quot;cc84a5aba48c80ffe2fd&quot;&gt;[email&amp;#160;protected]&lt;/a&gt;&lt;script cf-hash='f9e31' type=&quot;text/javascript&quot;&gt;\n/* &lt;![CDATA[ */!function(){try{var t=&quot;currentScript&quot;in document?document.currentScript:function(){for(var t=document.getElementsByTagName(&quot;script&quot;),e=t.length;e--;)if(t[e].getAttribute(&quot;cf-hash&quot;))return t[e]}();if(t&amp;&amp;t.previousSibling){var e,r,n,i,c=t.previousSibling,a=c.getAttribute(&quot;data-cfemail&quot;);if(a){for(e=&quot;&quot;,r=parseInt(a.substr(0,2),16),n=2;a.length-n;n+=2)i=parseInt(a.substr(n,2),16)^r,e+=String.fromCharCode(i);e=document.createTextNode(e),c.parentNode.replaceChild(e,c)}}}catch(u){}}();/* ]]&gt; */&lt;/script&gt;\nFormat settings, CABAC : Yes\nFormat settings, ReFrames: 8 frames\nCodec ID : avc1\nCodec ID/Info: Advanced Video Coding\nDuration : 47mn 11s\nBit rate : 940 Kbps\nMaximum bit rate : 5 123 Kbps\nWidth: 720 pixels\nHeight : 416 pixels\nDisplay aspect ratio : 1.731\nFrame rate mode: Constant\nFrame rate : 25.000 fps\nColor space: YUV\nChroma subsampling : 4:2:0\nBit depth: 8 bits\nScan type: Progressive\nBits/(Pixel*Frame) : 0.126\nStream size: 317 MiB (88%)\nWriting library: x264 core 129 r2245 bc13772\n\nAudio\nID : 2\nFormat : AAC\nFormat/Info: Advanced Audio Codec\nFormat profile : LC\nCodec ID : 40\nDuration : 47mn 11s\nBit rate mode: Variable\nBit rate : 128 Kbps\nMaximum bit rate : 145 Kbps\nChannel(s) : 2 channels\nChannel positions: Front: L R\nSampling rate: 48.0 KHz\nCompression mode : Lossy\nDelay relative to video: 80ms\nStream size: 43.2 MiB (12%)\nLanguage : English\n","torrent":{"xt":"urn:btih:2a5edd36d4655f09a8feb2ab0d49dc60dc44ec80","amp;dn":"Rugby.Union-The.Rugby.Club-2013.02.28.pdtv.x264","amp;tr":["udp%3A%2F%2Ftracker.openbittorrent.com%3A80","udp%3A%2F%2Fopen.demonii.com%3A1337","udp%3A%2F%2Ftracker.coppersurfer.tk%3A6969","udp%3A%2F%2Fexodus.desync.com%3A6969"],"infoHash":"2a5edd36d4655f09a8feb2ab0d49dc60dc44ec80","infoHashBuffer":{"type":"Buffer","data":[42,94,221,54,212,101,95,9,168,254,178,171,13,73,220,96,220,68,236,128]},"announce":[],"urlList":[]}}